<?xml version="1.0" encoding="utf-8"?>
<!-- Generator: Adobe Illustrator 23.0.1, SVG Export Plug-In . SVG Version: 6.00 Build 0)  -->
<svg version="1.1" xmlns="http://www.w3.org/2000/svg" xmlns:xlink="http://www.w3.org/1999/xlink" x="0px" y="0px"
	 viewBox="0 0 369.18 107.88" style="enable-background:new 0 0 369.18 141.88;" xml:space="preserve">
<style type="text/css">
	.st0{fill:#4b5563;}
	.st1{fill-rule:evenodd;clip-rule:evenodd;fill:#4b5563;}
	.st2{display:none;}
	.st3{display:inline;fill:#4b5563;}
	.st4{display:inline;fill-rule:evenodd;clip-rule:evenodd;fill:#4b5563;}
	.st5{display:inline;}
</style>
<g id="Live">
	<path class="st0" d="M225.81,71.78h-7.49l-4.69,10.86h-1.78l-4.69-10.86h-7.49l-4.69,10.86h-1.78V53.72h-0.01v-13.2l-1.19-2.89
		l-1.19,2.89h-0.03l-6.6-22.86l-6.6,22.86h-0.03l-1.19-2.89l-1.19,2.89v13.2h-0.01v28.91h-1.78l-4.69-10.86h-7.49l-4.69,10.86h-1.78
		l-4.69-10.86h-7.49l-4.69,10.86v23.43h37.32h3.54V93.48c0-3.02,2.47-5.49,5.49-5.49c3.02,0,5.49,2.47,5.49,5.49v12.58h3.54h37.32
		V82.63L225.81,71.78z M149.59,100.7h-6.65v-9.38c0-1.83,1.5-3.32,3.32-3.32c1.83,0,3.32,1.5,3.32,3.32V100.7z M168.25,100.7h-6.65
		v-9.38c0-1.83,1.5-3.32,3.32-3.32c1.83,0,3.32,1.5,3.32,3.32V100.7z M184.16,51.88c-2.63,0-4.76-2.13-4.76-4.76
		s2.13-4.76,4.76-4.76s4.76,2.13,4.76,4.76S186.79,51.88,184.16,51.88z M206.73,100.7h-6.65v-9.38c0-1.83,1.5-3.32,3.32-3.32
		c1.83,0,3.32,1.5,3.32,3.32V100.7z M225.39,100.7h-6.65v-9.38c0-1.83,1.5-3.32,3.32-3.32c1.83,0,3.32,1.5,3.32,3.32V100.7z"/>
	<path class="st1" d="M183.74,18.13c0.04-1.29,0.12-2.87,0.17-4.31c-0.28-0.25-0.64-0.12-0.97-0.06c-1.03,0.2-2.11,0.38-3.08,0.6
		c0.1-0.58,0.51-0.86,0.43-1.63c-0.26-0.38-0.68-0.59-1.03-0.86c-1.09-0.83-2.18-1.66-3.26-2.48c0.43-0.24,1.12-0.23,1.17-0.77
		c0.02-0.18-0.1-0.41-0.17-0.66c-0.2-0.64-0.42-1.41-0.6-1.94c0.31,0.03,0.7,0.13,1.11,0.2c0.41,0.07,0.9,0.2,1.2,0.14
		c0.22-0.04,0.39-0.27,0.49-0.46c0.11-0.23,0.16-0.52,0.26-0.77c0.51,0.47,1.03,1.18,1.54,1.8c0.14,0.17,0.41,0.53,0.71,0.43
		c0.26-0.08,0.15-0.49,0.09-0.83c-0.26-1.35-0.59-2.92-0.83-4.2c0.41,0.15,0.77,0.58,1.17,0.74c0.38,0.15,0.67,0.01,0.86-0.29
		c0.11-0.17,0.18-0.43,0.29-0.69c0.28-0.65,0.64-1.6,0.89-2.11h0c0.25,0.52,0.61,1.46,0.89,2.11c0.11,0.25,0.18,0.52,0.29,0.69
		c0.19,0.3,0.47,0.44,0.86,0.29c0.4-0.16,0.76-0.59,1.17-0.74c-0.24,1.27-0.57,2.84-0.83,4.2c-0.07,0.33-0.17,0.74,0.09,0.83
		c0.31,0.1,0.57-0.26,0.71-0.43c0.51-0.62,1.03-1.32,1.54-1.8c0.1,0.25,0.14,0.54,0.26,0.77c0.09,0.19,0.26,0.42,0.49,0.46
		c0.29,0.05,0.79-0.07,1.2-0.14c0.41-0.07,0.8-0.17,1.11-0.2c-0.18,0.54-0.4,1.3-0.6,1.94c-0.08,0.25-0.19,0.48-0.17,0.66
		c0.06,0.55,0.74,0.53,1.17,0.77c-1.07,0.83-2.16,1.65-3.26,2.48c-0.35,0.27-0.77,0.48-1.03,0.86c-0.08,0.77,0.32,1.05,0.43,1.63
		c-0.97-0.22-2.05-0.4-3.08-0.6c-0.33-0.06-0.69-0.19-0.97,0.06c0.05,1.45,0.14,3.02,0.17,4.31
		C184.44,18.13,183.86,18.13,183.74,18.13z"/>
	
</g>

</svg>
